<?xml version="1.0" standalone="no"?>
<!DOCTYPE svg PUBLIC "-//W3C//DTD SVG 20010904//EN"
 "http://www.w3.org/TR/2001/REC-SVG-20010904/DTD/svg10.dtd">
<svg version="1.0" xmlns="http://www.w3.org/2000/svg"
 width="700.000000pt" height="700.000000pt" viewBox="0 0 700.000000 700.000000"
 preserveAspectRatio="xMidYMid meet">
<metadata>
Created by potrace 1.14, written by Peter Selinger 2001-2017
</metadata>
<g transform="translate(0.000000,700.000000) scale(0.100000,-0.100000)"
fill="#000000" stroke="none">
<path d="M3264 6989 c-703 -45 -1393 -314 -1959 -765 -141 -113 -416 -388
-529 -529 -172 -216 -310 -436 -431 -688 -505 -1049 -448 -2295 151 -3297 540
-905 1461 -1520 2498 -1670 691 -100 1389 6 2015 306 1636 785 2401 2684 1765
4384 -123 331 -320 676 -550 965 -113 141 -388 416 -529 529 -696 555 -1545
822 -2431 765z m-749 -1309 c430 -46 789 -331 924 -735 16 -49 32 -103 36
-119 6 -28 7 -28 56 -22 77 10 326 8 414 -5 318 -43 622 -182 864 -392 290
-253 486 -639 507 -997 8 -134 6 -130 67 -130 69 0 201 -32 281 -69 217 -98
383 -294 443 -521 25 -97 23 -264 -5 -363 -67 -236 -240 -427 -472 -520 -151
-60 -71 -57 -1813 -57 -1717 0 -1675 -1 -1830 51 -272 91 -504 305 -608 560
-96 236 -88 509 21 738 98 204 274 377 474 467 36 16 66 31 66 34 0 3 -25 18
-55 34 -84 43 -204 136 -275 212 -372 398 -395 1006 -54 1432 176 221 443 368
727 401 101 12 130 12 232 1z"/>
</g>
</svg>
